<svg width="16" height="16" viewBox="0 0 16 16" fill="none" xmlns="http://www.w3.org/2000/svg">
<path d="M7.99998 1.33325C9.81131 1.33325 10.0373 1.33992 10.748 1.37325C11.458 1.40659 11.9413 1.51792 12.3666 1.68325C12.8066 1.85259 13.1773 2.08192 13.548 2.45192C13.887 2.78518 14.1493 3.18831 14.3166 3.63325C14.4813 4.05792 14.5933 4.54192 14.6266 5.25192C14.658 5.96259 14.6666 6.18859 14.6666 7.99992C14.6666 9.81125 14.66 10.0373 14.6266 10.7479C14.5933 11.4579 14.4813 11.9413 14.3166 12.3666C14.1498 12.8118 13.8874 13.215 13.548 13.5479C13.2146 13.8868 12.8115 14.1491 12.3666 14.3166C11.942 14.4813 11.458 14.5933 10.748 14.6266C10.0373 14.6579 9.81131 14.6666 7.99998 14.6666C6.18865 14.6666 5.96265 14.6599 5.25198 14.6266C4.54198 14.5933 4.05865 14.4813 3.63331 14.3166C3.1882 14.1496 2.785 13.8872 2.45198 13.5479C2.11292 13.2147 1.8506 12.8116 1.68331 12.3666C1.51798 11.9419 1.40665 11.4579 1.37331 10.7479C1.34198 10.0373 1.33331 9.81125 1.33331 7.99992C1.33331 6.18859 1.33998 5.96259 1.37331 5.25192C1.40665 4.54125 1.51798 4.05859 1.68331 3.63325C1.85014 3.18804 2.11252 2.7848 2.45198 2.45192C2.78509 2.11274 3.18827 1.8504 3.63331 1.68325C4.05865 1.51792 4.54131 1.40659 5.25198 1.37325C5.96265 1.34192 6.18865 1.33325 7.99998 1.33325ZM7.99998 4.66659C7.11592 4.66659 6.26808 5.01777 5.64296 5.6429C5.01784 6.26802 4.66665 7.11586 4.66665 7.99992C4.66665 8.88397 5.01784 9.73182 5.64296 10.3569C6.26808 10.9821 7.11592 11.3333 7.99998 11.3333C8.88403 11.3333 9.73188 10.9821 10.357 10.3569C10.9821 9.73182 11.3333 8.88397 11.3333 7.99992C11.3333 7.11586 10.9821 6.26802 10.357 5.6429C9.73188 5.01777 8.88403 4.66659 7.99998 4.66659ZM12.3333 4.49992C12.3333 4.2789 12.2455 4.06694 12.0892 3.91066C11.933 3.75438 11.721 3.66659 11.5 3.66659C11.279 3.66659 11.067 3.75438 10.9107 3.91066C10.7544 4.06694 10.6666 4.2789 10.6666 4.49992C10.6666 4.72093 10.7544 4.93289 10.9107 5.08917C11.067 5.24545 11.279 5.33325 11.5 5.33325C11.721 5.33325 11.933 5.24545 12.0892 5.08917C12.2455 4.93289 12.3333 4.72093 12.3333 4.49992ZM7.99998 5.99992C8.53041 5.99992 9.03912 6.21063 9.41419 6.5857C9.78927 6.96078 9.99998 7.46949 9.99998 7.99992C9.99998 8.53035 9.78927 9.03906 9.41419 9.41413C9.03912 9.78921 8.53041 9.99992 7.99998 9.99992C7.46955 9.99992 6.96084 9.78921 6.58577 9.41413C6.21069 9.03906 5.99998 8.53035 5.99998 7.99992C5.99998 7.46949 6.21069 6.96078 6.58577 6.5857C6.96084 6.21063 7.46955 5.99992 7.99998 5.99992Z" fill="white"/>
</svg>
