<svg width="16" height="16" viewBox="0 0 16 16" fill="none" xmlns="http://www.w3.org/2000/svg">
<path d="M4.05535 8.66675C3.95898 8.0934 3.98876 7.50593 4.1426 6.94526C4.29645 6.38459 4.57067 5.8642 4.94616 5.42032C5.32165 4.97645 5.78939 4.61977 6.31681 4.37511C6.84422 4.13046 7.41863 4.00372 8.00002 4.00372C8.58141 4.00372 9.15582 4.13046 9.68323 4.37511C10.2106 4.61977 10.6784 4.97645 11.0539 5.42032C11.4294 5.8642 11.7036 6.38459 11.8574 6.94526C12.0113 7.50593 12.0411 8.0934 11.9447 8.66675H4.05535ZM1.33335 10.0001H8.00002V11.3334H1.33335V10.0001ZM9.33335 10.0001H14.6667V11.3334H9.33335V10.0001ZM10.6667 12.6667H13.3334V14.0001H10.6667V12.6667ZM2.66669 12.6667H9.33335V14.0001H2.66669V12.6667ZM7.33335 0.666748H8.66669V2.66675H7.33335V0.666748ZM2.34335 3.28608L3.28602 2.34341L4.70002 3.75741L3.75735 4.70008L2.34335 3.28675V3.28608ZM12.7134 2.34341L13.656 3.28608L12.242 4.70008L11.2994 3.75741L12.7134 2.34341ZM15.3334 7.33341V8.66675H13.3334V7.33341H15.3334ZM2.66669 7.33341V8.66675H0.666687V7.33341H2.66669Z" fill="#393939"/>
</svg>
