<svg width="14" height="12" viewBox="0 0 14 12" fill="none" xmlns="http://www.w3.org/2000/svg">
<path d="M13.7747 1.77062C13.2657 1.99575 12.726 2.1436 12.1733 2.20928C12.7558 1.86091 13.1918 1.31263 13.4 0.666618C12.8533 0.991951 12.254 1.21995 11.6293 1.34328C11.2097 0.894337 10.6536 0.596593 10.0473 0.496341C9.44104 0.396089 8.81863 0.498945 8.27685 0.78892C7.73507 1.07889 7.30426 1.53974 7.05141 2.09981C6.79857 2.65989 6.73784 3.2878 6.87867 3.88595C5.77008 3.83039 4.68556 3.5423 3.69553 3.04039C2.7055 2.53849 1.83209 1.83398 1.132 0.972618C0.884198 1.39825 0.753975 1.8821 0.754671 2.37462C0.754671 3.34128 1.24667 4.19528 1.99467 4.69528C1.55201 4.68135 1.11909 4.56181 0.732005 4.34662V4.38128C0.732138 5.02508 0.954917 5.64903 1.36257 6.14732C1.77022 6.64562 2.33766 6.9876 2.96867 7.11528C2.55775 7.22664 2.12688 7.24306 1.70867 7.16328C1.88658 7.71744 2.23334 8.20208 2.7004 8.54936C3.16746 8.89663 3.73142 9.08915 4.31334 9.09995C3.73499 9.55417 3.07279 9.88994 2.36459 10.0881C1.65639 10.2862 0.91609 10.3428 0.186005 10.2546C1.46047 11.0742 2.94407 11.5094 4.45934 11.5079C9.58801 11.5079 12.3927 7.25928 12.3927 3.57462C12.3927 3.45462 12.3893 3.33328 12.384 3.21462C12.9299 2.82006 13.4011 2.3313 13.7753 1.77128L13.7747 1.77062Z" fill="white"/>
</svg>
