<svg width="16" height="16" viewBox="0 0 16 16" fill="none" xmlns="http://www.w3.org/2000/svg">
<path d="M14.362 4.33208C14.6666 5.52008 14.6666 8.00008 14.6666 8.00008C14.6666 8.00008 14.6666 10.4801 14.362 11.6681C14.1926 12.3247 13.6973 12.8414 13.07 13.0161C11.9306 13.3334 7.99998 13.3334 7.99998 13.3334C7.99998 13.3334 4.07131 13.3334 2.92998 13.0161C2.29998 12.8387 1.80531 12.3227 1.63798 11.6681C1.33331 10.4801 1.33331 8.00008 1.33331 8.00008C1.33331 8.00008 1.33331 5.52008 1.63798 4.33208C1.80731 3.67541 2.30265 3.15875 2.92998 2.98408C4.07131 2.66675 7.99998 2.66675 7.99998 2.66675C7.99998 2.66675 11.9306 2.66675 13.07 2.98408C13.7 3.16141 14.1946 3.67741 14.362 4.33208ZM6.66665 10.3334L10.6666 8.00008L6.66665 5.66675V10.3334Z" fill="white"/>
</svg>
